<?xml version="1.0" encoding="iso-8859-1"?>
<!-- Generator: Adobe Illustrator 19.0.0, SVG Export Plug-In . SVG Version: 6.00 Build 0)  -->
<svg version="1.1" id="Layer_1" xmlns="http://www.w3.org/2000/svg" xmlns:xlink="http://www.w3.org/1999/xlink" x="0px" y="0px"
	 viewBox="0 0 290 290" style="enable-background:new 0 0 290 290;" xml:space="preserve">
<g id="XMLID_517_">
	<path id="XMLID_518_" d="M145.002,80c-35.84,0-64.998,29.159-64.998,65.001c0,35.841,29.158,64.999,64.998,64.999
		c35.842,0,65.002-29.159,65.002-64.999C210.004,109.159,180.844,80,145.002,80z M145.002,180
		c-19.298,0-34.998-15.701-34.998-34.999c0-19.299,15.7-35.001,34.998-35.001c19.3,0,35.002,15.701,35.002,35.001
		C180.004,164.299,164.302,180,145.002,180z"/>
	<path id="XMLID_521_" d="M145,50c8.284,0,15-6.716,15-15V15c0-8.284-6.716-15-15-15s-15,6.716-15,15v20
		C130,43.284,136.716,50,145,50z"/>
	<path id="XMLID_522_" d="M145,240c-8.284,0-15,6.716-15,15v20c0,8.284,6.716,15,15,15s15-6.716,15-15v-20
		C160,246.716,153.284,240,145,240z"/>
	<path id="XMLID_523_" d="M275,130h-20c-8.284,0-15,6.716-15,15s6.716,15,15,15h20c8.284,0,15-6.716,15-15S283.284,130,275,130z"/>
	<path id="XMLID_524_" d="M50,145c0-8.284-6.716-15-15-15H15c-8.284,0-15,6.716-15,15s6.716,15,15,15h20
		C43.284,160,50,153.284,50,145z"/>
	<path id="XMLID_525_" d="M222.781,82.218c3.838,0,7.678-1.465,10.606-4.393l14.143-14.142c5.858-5.858,5.858-15.355,0-21.213
		c-5.857-5.858-15.355-5.857-21.213,0l-14.143,14.142c-5.858,5.858-5.858,15.355,0,21.213
		C215.104,80.753,218.942,82.218,222.781,82.218z"/>
	<path id="XMLID_526_" d="M56.612,212.174L42.47,226.316c-5.858,5.858-5.858,15.355,0,21.213c2.929,2.929,6.768,4.393,10.606,4.393
		c3.838,0,7.678-1.465,10.606-4.393l14.143-14.142c5.858-5.858,5.858-15.355,0-21.213C71.969,206.317,62.471,206.317,56.612,212.174
		z"/>
	<path id="XMLID_527_" d="M233.388,212.174c-5.857-5.857-15.355-5.858-21.213,0.001c-5.858,5.858-5.858,15.355,0,21.213
		l14.143,14.142c2.929,2.929,6.768,4.393,10.606,4.393c3.839,0,7.678-1.464,10.607-4.393c5.858-5.858,5.858-15.355,0-21.213
		L233.388,212.174z"/>
	<path id="XMLID_530_" d="M56.612,77.825c2.929,2.929,6.768,4.393,10.607,4.393c3.839,0,7.678-1.464,10.606-4.394
		c5.858-5.858,5.858-15.355,0-21.213L63.683,42.469c-5.857-5.857-15.355-5.858-21.213,0c-5.858,5.858-5.858,15.355,0,21.213
		L56.612,77.825z"/>
</g>
<g>
</g>
<g>
</g>
<g>
</g>
<g>
</g>
<g>
</g>
<g>
</g>
<g>
</g>
<g>
</g>
<g>
</g>
<g>
</g>
<g>
</g>
<g>
</g>
<g>
</g>
<g>
</g>
<g>
</g>
</svg>
